<svg width="18" height="16" viewBox="0 0 18 16" fill="none" xmlns="http://www.w3.org/2000/svg">
<path fill-rule="evenodd" clip-rule="evenodd" d="M7.99526 0.658288C8.05282 0.475753 8.16707 0.316321 8.32143 0.203149C8.47578 0.0899781 8.66219 0.0289612 8.85359 0.0289612C9.04499 0.0289612 9.2314 0.0899781 9.38575 0.203149C9.54011 0.316321 9.65436 0.475753 9.71192 0.658288L11.2619 5.42495H16.2619C16.4602 5.41746 16.6554 5.47507 16.8178 5.58899C16.9802 5.7029 17.1009 5.86686 17.1614 6.0558C17.2218 6.24474 17.2188 6.44829 17.1527 6.63533C17.0865 6.82238 16.961 6.98263 16.7953 7.09162L12.7369 10.0333L14.2869 14.8083C14.3482 14.9902 14.3498 15.1869 14.2913 15.3697C14.2329 15.5526 14.1175 15.7119 13.9621 15.8245C13.8067 15.9371 13.6193 15.9971 13.4274 15.9957C13.2355 15.9943 13.049 15.9315 12.8953 15.8166L8.82859 12.8416L4.77026 15.7916C4.61651 15.9065 4.43006 15.9693 4.23813 15.9707C4.04619 15.9721 3.85883 15.9121 3.7034 15.7995C3.54797 15.6869 3.43261 15.5276 3.37418 15.3447C3.31574 15.1619 3.31729 14.9652 3.37859 14.7833L4.92859 10.0083L0.870256 7.06662C0.704492 6.95763 0.578966 6.79738 0.512856 6.61033C0.446747 6.42329 0.44369 6.21975 0.504152 6.0308C0.564615 5.84186 0.685271 5.6779 0.847687 5.56398C1.0101 5.45007 1.20535 5.39246 1.40359 5.39995H6.40359L7.99526 0.658288Z" fill="#FDBC15"/>
</svg>
