<svg width="17" height="17" viewBox="0 0 17 17" fill="none" xmlns="http://www.w3.org/2000/svg">
<g clip-path="url(#clip0)">
<path fill-rule="evenodd" clip-rule="evenodd" d="M8.9275 3.76001C9.56402 3.12349 10.4273 2.7659 11.3275 2.7659C12.2277 2.7659 13.091 3.12349 13.7275 3.76001C14.364 4.39653 14.7216 5.25984 14.7216 6.16001C14.7216 7.06019 14.364 7.92349 13.7275 8.56001L12.8542 9.43334L8.05417 14.2333L3.25416 9.43334L2.38083 8.56001C1.74431 7.92349 1.38672 7.06019 1.38672 6.16001C1.38672 5.25984 1.74431 4.39653 2.38083 3.76001C3.01735 3.12349 3.88066 2.7659 4.78083 2.7659C5.68101 2.7659 6.54431 3.12349 7.18083 3.76001L8.05417 4.63334L8.9275 3.76001Z" stroke="#E6704B" stroke-width="2" stroke-linecap="round" stroke-linejoin="round"/>
</g>
<defs>
<clipPath id="clip0">
<rect width="16" height="16" fill="white" transform="translate(0.0546875 0.5)"/>
</clipPath>
</defs>
</svg>
