<svg width="16" height="17" viewBox="0 0 16 17" fill="none" xmlns="http://www.w3.org/2000/svg">
<g clip-path="url(#clip0)">
<path d="M6.33398 1.83331H3.66732C2.93094 1.83331 2.33398 2.43027 2.33398 3.16665V5.83331C2.33398 6.56969 2.93094 7.16665 3.66732 7.16665H6.33398C7.07036 7.16665 7.66732 6.56969 7.66732 5.83331V3.16665C7.66732 2.43027 7.07036 1.83331 6.33398 1.83331Z" stroke="#E6704B" stroke-width="2" stroke-linecap="round" stroke-linejoin="round"/>
<path d="M6.33398 9.83331H3.66732C2.93094 9.83331 2.33398 10.4303 2.33398 11.1666V13.8333C2.33398 14.5697 2.93094 15.1666 3.66732 15.1666H6.33398C7.07036 15.1666 7.66732 14.5697 7.66732 13.8333V11.1666C7.66732 10.4303 7.07036 9.83331 6.33398 9.83331Z" stroke="#E6704B" stroke-width="2" stroke-linecap="round" stroke-linejoin="round"/>
<path d="M13.668 11.1665H9.66797" stroke="#E6704B" stroke-width="2" stroke-linecap="round" stroke-linejoin="round"/>
<path d="M12.3346 13.8333H9.66797" stroke="#E6704B" stroke-width="2" stroke-linecap="round" stroke-linejoin="round"/>
<path d="M12.3346 5.83331H9.66797" stroke="#E6704B" stroke-width="2" stroke-linecap="round" stroke-linejoin="round"/>
<path d="M13.668 3.16647H9.66797" stroke="#E6704B" stroke-width="2" stroke-linecap="round" stroke-linejoin="round"/>
</g>
<defs>
<clipPath id="clip0">
<rect width="16" height="16" fill="white" transform="translate(0 0.5)"/>
</clipPath>
</defs>
</svg>
